Coordinates
version=1
nRows=49
nColumns=12
inDegrees=yes

Units are S.I. units (second, meters, Newtons, ...)
Angles are in degrees

endheader
time	SC_y	SC_z	SC_x	AC_y	AC_z	AC_x	GH_y	GH_z	GH_yy	EL_x	PS_y
       0.0              -20.38          23.66          56.35          59.26         -14.55          14.25          102.6          33.41         -58.27          21.68          59.93
   0.03778              -20.38          23.65          56.35          59.26         -14.55          14.25          102.6          33.42         -58.29          21.69          59.94
   0.07556              -20.38          23.65          56.36          59.26         -14.55          14.25          102.6          33.43          -58.3          21.71          59.95
    0.1133              -20.38          23.65          56.36          59.25         -14.55          14.25          102.6          33.44         -58.31          21.73          59.96
    0.1511              -20.38          23.65          56.37          59.25         -14.55          14.25          102.6          33.44         -58.33          21.75          59.98
    0.1889              -20.38          23.64          56.37          59.25         -14.55          14.25          102.7          33.45         -58.35          21.77          59.99
    0.2267              -20.38          23.64          56.38          59.25         -14.55          14.25          102.7          33.46         -58.36           21.8           60.0
    0.2645              -20.38          23.64          56.38          59.25         -14.55          14.25          102.7          33.47         -58.38          21.82          60.02
    0.3023              -20.38          23.63          56.39          59.25         -14.55          14.25          102.7          33.48          -58.4          21.85          60.03
      0.34              -20.38          23.63          56.39          59.24         -14.55          14.25          102.7          33.49         -58.43          21.87          60.05
    0.3778              -20.38          23.62           56.4          59.24         -14.55          14.25          102.7          33.51         -58.45           21.9          60.07
    0.4156              -20.38          23.62          56.41          59.24         -14.55          14.25          102.7          33.52         -58.47          21.94          60.09
    0.4534              -20.39          23.61          56.42          59.24         -14.55          14.25          102.7          33.53          -58.5          21.97          60.11
    0.4912              -20.39          23.61          56.42          59.23         -14.55          14.25          102.7          33.55         -58.53          22.01          60.13
    0.5289              -20.39           23.6          56.43          59.23         -14.55          14.25          102.7          33.57         -58.56          22.05          60.16
    0.5667              -20.39           23.6          56.44          59.23         -14.55          14.25          102.7          33.58          -58.6          22.09          60.19
    0.6045              -20.39          23.59          56.45          59.22         -14.55          14.25          102.7           33.6         -58.63          22.14          60.22
    0.6423              -20.39          23.58          56.47          59.22         -14.55          14.25          102.7          33.63         -58.67          22.19          60.25
    0.6801              -20.39          23.57          56.48          59.22         -14.55          14.25          102.7          33.65         -58.72          22.25          60.28
    0.7179              -20.39          23.56          56.49          59.21         -14.54          14.25          102.7          33.67         -58.77          22.31          60.32
    0.7556               -20.4          23.55          56.51          59.21         -14.54          14.25          102.7           33.7         -58.82          22.38          60.36
    0.7934               -20.4          23.54          56.52           59.2         -14.54          14.25          102.7          33.73         -58.88          22.46          60.41
    0.8312               -20.4          23.53          56.54           59.2         -14.54          14.25          102.7          33.77         -58.94          22.54          60.46
     0.869               -20.4          23.52          56.56          59.19         -14.54          14.25          102.7          33.81         -59.02          22.63          60.52
    0.9068               -20.4           23.5          56.59          59.18         -14.54          14.25          102.7          33.85          -59.1          22.74          60.58
    0.9445              -20.41          23.49          56.61          59.17         -14.54          14.25          102.7           33.9         -59.19          22.85          60.65
    0.9823              -20.41          23.47          56.64          59.16         -14.54          14.25          102.7          33.95         -59.29          22.98          60.73
      1.02              -20.41          23.45          56.67          59.15         -14.54          14.25          102.7          34.01          -59.4          23.12          60.82
     1.058              -20.42          23.42          56.71          59.14         -14.53          14.25          102.8          34.08         -59.53          23.29          60.92
     1.096              -20.42           23.4          56.75          59.13         -14.53          14.25          102.8          34.15         -59.67          23.47          61.03
     1.133              -20.42          23.36           56.8          59.11         -14.53          14.25          102.8          34.24         -59.83          23.68          61.16
     1.171              -20.43          23.33          56.86           59.1         -14.53          14.25          102.8          34.34         -60.02          23.93          61.31
     1.209              -20.44          23.29          56.92          59.08         -14.52          14.25          102.8          34.46         -60.24          24.21          61.48
     1.247              -20.44          23.24          56.99          59.05         -14.52          14.25          102.8          34.59         -60.49          24.53          61.68
     1.285              -20.45          23.19          57.08          59.03         -14.52          14.25          102.9          34.75         -60.79          24.91          61.91
     1.322              -20.46          23.12          57.18          58.99         -14.51          14.26          102.9          34.93         -61.14          25.36          62.19
      1.36              -20.47          23.04           57.3          58.95          -14.5          14.26          102.9          35.15         -61.56           25.9          62.52
     1.398              -20.49          22.95          57.44          58.91          -14.5          14.26          103.0          35.41         -62.05          26.54          62.91
     1.436              -20.51          22.84          57.62          58.85         -14.49          14.26          103.0          35.73         -62.66          27.31          63.38
     1.473              -20.53           22.7          57.83          58.79         -14.48          14.26          103.1          36.12         -63.39          28.26          63.96
     1.511              -20.56          22.53          58.09           58.7         -14.47          14.27          103.2           36.6          -64.3          29.42          64.68
     1.549              -20.59          22.32          58.42           58.6         -14.45          14.27          103.3           37.2         -65.44          30.88          65.57
     1.587              -20.63          22.05          58.83          58.47         -14.43          14.28          103.4          37.96         -66.86          32.71          66.69
     1.625              -20.68          21.71          59.35           58.3          -14.4          14.28          103.6          38.92         -68.68          35.04          68.12
     1.662              -20.75          21.28          60.02          58.08         -14.37          14.29          103.8          40.15          -71.0          38.03          69.95
       1.7              -20.84          20.72          60.88          57.81         -14.33           14.3          104.1          41.73         -73.98          41.85          72.29
     1.738              -20.95          20.01          61.98          57.46         -14.27          14.31          104.4          43.74         -77.79          46.75          75.29
     1.776              -21.09          19.12          63.36          57.02          -14.2          14.33          104.9          46.27         -82.57          52.89          79.06
     1.814              -21.26          18.03          65.05          56.48         -14.12          14.35          105.4          49.36         -88.41          60.39          83.65
